Coordinates
version=1
nRows=9
nColumns=24
inDegrees=yes

Units are S.I. units (second, meters, Newtons, ...)
Angles are in degrees.

endheader
time	pelvis_tilt	pelvis_list	pelvis_rotation	pelvis_tx	pelvis_ty	pelvis_tz	hip_flexion_r	hip_adduction_r	hip_rotation_r	knee_angle_r	ankle_angle_r	subtalar_angle_r	mtp_angle_r	hip_flexion_l	hip_adduction_l	hip_rotation_l	knee_angle_l	ankle_angle_l	subtalar_angle_l	mtp_angle_l	lumbar_extension	lumbar_bending	lumbar_rotation
      1.80000000	     64.42289497	     -4.90162829	      7.85965656	      0.83298288	      1.08975469	     -0.24681010	     -0.59604077	     -5.41890952	     -0.80099909	    -49.28711756	      4.45386785	     44.30682770	      0.00000000	      4.22628578	     -6.48958857	      3.91279893	    -63.45927126	      0.16522503	     -1.44285933	      0.00000000	      0.00000000	      0.00000000	      0.00000000
      1.81000000	     64.37779270	     -4.90284541	      7.79064632	      0.83278210	      1.08990615	     -0.24708749	     -0.01271521	     -5.82870111	     -0.93521518	    -49.94762272	      3.53564636	     44.93935274	      0.00000000	      4.31330297	     -6.38690545	      3.83216858	    -63.59438758	      0.19760360	     -1.34183747	      0.00000000	      0.00000000	      0.00000000	      0.00000000
      1.82000000	     64.29153873	     -4.90574388	      7.67130723	      0.83271160	      1.08965625	     -0.24729354	      0.53960426	     -6.23311823	     -1.14209069	    -50.25933361	      2.83606430	     45.11354927	      0.00000000	      4.46178177	     -6.27676197	      3.72095569	    -63.78417034	      0.21658800	     -1.24417639	      0.00000000	      0.00000000	      0.00000000	      0.00000000
      1.83000000	     64.17395567	     -4.91992477	      7.52117599	      0.83276574	      1.08929503	     -0.24747142	      1.01351248	     -6.61856446	     -1.41312161	    -50.19358019	      2.52124333	     44.83567113	      0.00000000	      4.65715173	     -6.17114979	      3.58566994	    -64.01880456	      0.22756171	     -1.14917533	      0.00000000	      0.00000000	      0.00000000	      0.00000000
      1.84000000	     64.04535160	     -4.95356502	      7.36807628	      0.83288405	      1.08905898	     -0.24768185	      1.39135804	     -6.97220748	     -1.74520157	    -49.80240531	      2.65458906	     44.13987321	      0.00000000	      4.86283311	     -6.08543912	      3.43818034	    -64.27251962	      0.23370648	     -1.05977972	      0.00000000	      0.00000000	      0.00000000	      0.00000000
      1.85000000	     63.92766029	     -5.00786281	      7.23646866	      0.83302275	      1.08895849	     -0.24793326	      1.67388511	     -7.28082272	     -2.13776493	    -49.18565057	      3.19750178	     43.07445377	      0.00000000	      5.03906176	     -6.03317538	      3.29246012	    -64.51346257	      0.23522685	     -0.98382023	      0.00000000	      0.00000000	      0.00000000	      0.00000000
      1.86000000	     63.84176426	     -5.07774666	      7.14246660	      0.83319447	      1.08891063	     -0.24816492	      1.87334546	     -7.53562477	     -2.58723367	    -48.44570780	      4.04044643	     41.68900514	      0.00000000	      5.15921679	     -6.02232733	      3.16036906	    -64.71598176	      0.22949887	     -0.93344868	      0.00000000	      0.00000000	      0.00000000	      0.00000000
      1.87000000	     63.80228140	     -5.15539612	      7.09390488	      0.83342092	      1.08885818	     -0.24830293	      2.00763245	     -7.73596840	     -3.08300920	    -47.65464653	      5.04589671	     40.02817514	      0.00000000	      5.21467294	     -6.05323224	      3.04760704	    -64.87124152	      0.21140173	     -0.92210033	      0.00000000	      0.00000000	      0.00000000	      0.00000000
      1.88000000	     63.81167547	     -5.23249419	      7.09101577	      0.83368477	      1.08875628	     -0.24832971	      2.09278815	     -7.88862877	     -3.60668132	    -46.84524766	      6.08560039	     38.13408577	      0.00000000	      5.21185566	     -6.11894253	      2.95204526	    -64.99021688	      0.17427879	     -0.96009142	      0.00000000	      0.00000000	      0.00000000	      0.00000000
